<svg width="8" height="8" viewBox="0 0 8 8" fill="none" xmlns="http://www.w3.org/2000/svg">
<path d="M7.76562 0C7.89062 0 8 0.109375 8 0.234375L7.98438 2.78125C7.98438 2.90625 7.89062 3 7.76562 3H7.25C7.125 3 7.01562 2.90625 7.01562 2.78125L7.0625 1.625L7.03125 1.59375L2.67188 5.95312C2.64062 5.98438 2.57812 6.01562 2.54688 6.01562C2.5 6.01562 2.4375 5.98438 2.40625 5.95312L2.04688 5.59375C2.01562 5.5625 1.98438 5.5 1.98438 5.45312C1.98438 5.42188 2.01562 5.35938 2.04688 5.32812L6.40625 0.96875L6.375 0.9375L5.21875 0.984375C5.09375 0.984375 5 0.875 5 0.75V0.234375C5 0.109375 5.09375 0.015625 5.21875 0.015625L7.76562 0ZM6.75 4.5C6.875 4.5 7 4.625 7 4.75V7.25C7 7.67188 6.65625 8 6.25 8H0.75C0.328125 8 0 7.67188 0 7.25V1.75C0 1.34375 0.328125 1 0.75 1H3.25C3.375 1 3.5 1.125 3.5 1.25V1.5C3.5 1.64062 3.375 1.75 3.25 1.75H0.84375C0.78125 1.75 0.75 1.79688 0.75 1.84375V7.15625C0.75 7.21875 0.78125 7.25 0.84375 7.25H6.15625C6.20312 7.25 6.25 7.21875 6.25 7.15625V4.75C6.25 4.625 6.35938 4.5 6.5 4.5H6.75Z" fill="#389FFF"/>
</svg>
