<svg width="38" height="38" viewBox="0 0 38 38" fill="none" xmlns="http://www.w3.org/2000/svg">
<circle cx="19" cy="19" r="19" fill="#389FFF"/>
<path d="M17.5625 31.5312C10.7188 21.6875 9.5 20.6562 9.5 17C9.5 12.0312 13.4844 8 18.5 8C23.4688 8 27.5 12.0312 27.5 17C27.5 20.6562 26.2344 21.6875 19.3906 31.5312C18.9688 32.1875 17.9844 32.1875 17.5625 31.5312ZM18.5 20.75C20.5625 20.75 22.25 19.1094 22.25 17C22.25 14.9375 20.5625 13.25 18.5 13.25C16.3906 13.25 14.75 14.9375 14.75 17C14.75 19.1094 16.3906 20.75 18.5 20.75Z" fill="white"/>
</svg>
